<svg width="136" height="26" viewBox="0 0 136 26" fill="none" xmlns="http://www.w3.org/2000/svg">
<path d="M14.0147 0.557435C13.6479 -0.18581 12.5881 -0.185813 12.2212 0.557433L8.94226 7.20138C8.7966 7.49652 8.51503 7.70109 8.18932 7.74842L0.857293 8.81383C0.0370727 8.93301 -0.290435 9.94099 0.303082 10.5195L5.60859 15.6911C5.84427 15.9208 5.95182 16.2518 5.89618 16.5762L4.64372 23.8786C4.50361 24.6955 5.36105 25.3185 6.09467 24.9328L12.6526 21.4851C12.944 21.3319 13.292 21.3319 13.5833 21.4851L20.1413 24.9328C20.8749 25.3185 21.7323 24.6955 21.5922 23.8786L20.3398 16.5762C20.2841 16.2518 20.3917 15.9208 20.6274 15.6911L25.9329 10.5195C26.5264 9.94099 26.1989 8.93301 25.3787 8.81383L18.0466 7.74842C17.7209 7.70109 17.4394 7.49653 17.2937 7.20138L14.0147 0.557435Z" fill="#CA3B3A"/>
<path d="M50.0147 0.557435C49.6479 -0.18581 48.5881 -0.185813 48.2212 0.557433L44.9423 7.20138C44.7966 7.49652 44.515 7.70109 44.1893 7.74842L36.8573 8.81383C36.0371 8.93301 35.7096 9.94099 36.3031 10.5195L41.6086 15.6911C41.8443 15.9208 41.9518 16.2518 41.8962 16.5762L40.6437 23.8786C40.5036 24.6955 41.361 25.3185 42.0947 24.9328L48.6526 21.4851C48.944 21.3319 49.292 21.3319 49.5833 21.4851L56.1413 24.9328C56.8749 25.3185 57.7323 24.6955 57.5922 23.8786L56.3398 16.5762C56.2841 16.2518 56.3917 15.9208 56.6274 15.6911L61.9329 10.5195C62.5264 9.94099 62.1989 8.93301 61.3787 8.81383L54.0466 7.74842C53.7209 7.70109 53.4394 7.49653 53.2937 7.20138L50.0147 0.557435Z" fill="#CA3B3A"/>
<path d="M84.2212 0.557433C84.5881 -0.185813 85.6479 -0.18581 86.0147 0.557435L89.2937 7.20138C89.4394 7.49653 89.7209 7.70109 90.0466 7.74842L97.3787 8.81383C98.1989 8.93301 98.5264 9.94099 97.9329 10.5195L92.6274 15.6911C92.3917 15.9208 92.2841 16.2518 92.3398 16.5762L93.5922 23.8786C93.7323 24.6955 92.8749 25.3185 92.1413 24.9328L85.5833 21.4851C85.292 21.3319 84.944 21.3319 84.6526 21.4851L78.0947 24.9328C77.361 25.3185 76.5036 24.6955 76.6437 23.8786L77.8962 16.5762C77.9518 16.2518 77.8443 15.9208 77.6086 15.6911L72.3031 10.5195C71.7096 9.94099 72.0371 8.93301 72.8573 8.81383L80.1893 7.74842C80.515 7.70109 80.7966 7.49652 80.9423 7.20138L84.2212 0.557433Z" fill="#CA3B3A"/>
<path fill-rule="evenodd" clip-rule="evenodd" d="M121.221 0.557433C121.588 -0.185812 122.648 -0.18581 123.015 0.557435L126.294 7.20138C126.439 7.49652 126.721 7.70109 127.047 7.74842L134.379 8.81383C135.199 8.93301 135.526 9.94099 134.933 10.5195L129.627 15.6911C129.392 15.9208 129.284 16.2518 129.34 16.5762L130.592 23.8786C130.732 24.6955 129.875 25.3185 129.141 24.9328L122.583 21.4851C122.292 21.3319 121.944 21.3319 121.653 21.4851L115.095 24.9328C114.361 25.3185 113.504 24.6955 113.644 23.8786L114.896 16.5762C114.952 16.2518 114.844 15.9208 114.609 15.6911L109.303 10.5195C108.71 9.94099 109.037 8.93301 109.857 8.81383L117.189 7.74842C117.515 7.70109 117.797 7.49652 117.942 7.20138L121.221 0.557433ZM119.736 8.08651L122.118 3.25955L124.5 8.08651C124.937 8.97194 125.782 9.58565 126.759 9.72764L132.086 10.5017L128.231 14.2589C127.524 14.9481 127.202 15.9411 127.369 16.9143L128.279 22.2197L123.514 19.7148C122.64 19.2554 121.596 19.2554 120.722 19.7148L115.957 22.2197L116.867 16.9143C117.034 15.9412 116.712 14.9482 116.005 14.2589L112.15 10.5017L117.477 9.72764C118.454 9.58565 119.299 8.97194 119.736 8.08651Z" fill="#CA3B3A"/>
</svg>
